<svg enable-background="new 0 0 80 80" height="80" viewBox="0 0 80 80" width="80" xmlns="http://www.w3.org/2000/svg"><path d="m62.7 80h-45.4c-9.5 0-17.3-7.8-17.3-17.3v-45.4c0-9.5 7.8-17.3 17.3-17.3h45.3c9.6 0 17.4 7.8 17.4 17.3v45.3c0 9.6-7.8 17.4-17.3 17.4" fill="#00b900"/><path d="m69 36.5c0-13-13.1-23.6-29.1-23.6-16.1 0-29.1 10.6-29.1 23.6 0 11.7 10.4 21.5 24.4 23.3.9.2 2.2.6 2.6 1.4.3.7.2 1.9.1 2.6 0 0-.3 2.1-.4 2.5-.1.7-.6 2.9 2.5 1.6 3-1.3 16.6-9.8 22.8-16.9 4.2-4.6 6.2-9.3 6.2-14.5" fill="#fff"/><g fill="#00b900"><path d="m34 30.2h-2c-.3 0-.6.3-.6.6v12.7c0 .3.3.6.6.6h2c.3 0 .6-.3.6-.6v-12.7c-.1-.4-.3-.6-.6-.6"/><path d="m48 30.2h-2c-.3 0-.6.3-.6.6v7.5l-5.8-7.9s0 0 0-.1h-2c-.3 0-.6.3-.6.6v12.7c0 .3.3.6.6.6h2c.3 0 .6-.3.6-.6v-7.5l5.8 7.9c0 .1.1.1.1.1h.1 2c.3 0 .6-.3.6-.6v-12.7c-.2-.4-.5-.6-.8-.6"/><path d="m29 40.8h-5.6v-10c0-.3-.3-.6-.6-.6h-2c-.3 0-.6.3-.6.6v12.7c0 .2.1.3.2.4s.2.2.4.2h8.2c.3 0 .6-.3.6-.6v-2c0-.4-.3-.7-.6-.7"/><path d="m59.3 33.4c.3 0 .6-.3.6-.6v-2c0-.3-.3-.6-.6-.6h-8.2c-.2 0-.3.1-.4.2s-.2.2-.2.4v12.7c0 .2.1.3.2.4s.2.2.4.2h8.2c.3 0 .6-.3.6-.6v-2c0-.3-.3-.6-.6-.6h-5.6v-2.1h5.6c.3 0 .6-.3.6-.6v-2c0-.3-.3-.6-.6-.6h-5.6v-2.1h5.6z"/></g></svg>