<svg enable-background="new 0 0 31.9 30.6" height="30.6" viewBox="0 0 31.9 30.6" width="31.9" xmlns="http://www.w3.org/2000/svg"><path d="m31.9 13c0-7.2-7.2-13-15.9-13s-16 5.8-16 13c0 6.4 5.7 11.8 13.3 12.8.5.1 1.2.3 1.4.8.1.5.1 1 .1 1.5l-.2 1.4c-.1.4-.3 1.6 1.4.9s9.2-5.4 12.5-9.3c2.1-2.2 3.3-5.1 3.4-8.1zm-21.6 3.9c0 .2-.1.3-.3.3h-4.5c-.1 0-.2 0-.2-.1-.1-.1-.1-.1-.1-.2v-7c0-.2.1-.3.3-.3h1.1c.2 0 .4.1.4.3v5.6h3c.2 0 .3.1.3.3zm2.7 0c0 .2-.1.3-.3.3h-1.1c-.2 0-.3-.1-.3-.3v-7c0-.2.1-.3.3-.3h1.1c.2 0 .3.1.3.3zm7.7 0c0 .2-.1.3-.3.3h-1.1-.1s0 0 0 0-.1 0-.1-.1l-3.2-4.3v4.2c0 .2-.1.3-.3.3h-1.1c-.2 0-.3-.1-.3-.3v-7c0-.2.1-.3.3-.3h1.1s0 0 0 0l3.4 4.3v-4.1c0-.2.1-.3.3-.3h1.1c.2 0 .3.1.3.3zm6.2-5.9c0 .2-.1.3-.3.3h-3v1.2h3c.2 0 .3.1.3.3v1.1c0 .2-.1.3-.3.3h-3v1.2h3c.2 0 .3.1.3.3v1.1c0 .2-.1.3-.3.3h-4.5c-.1 0-.2 0-.2-.1-.1-.1-.1-.1-.1-.2v-7c0-.1 0-.2.1-.2h.2 4.5c.2 0 .3.1.3.3z" fill="#fff"/></svg>